<svg id="Group_20332" data-name="Group 20332" xmlns="http://www.w3.org/2000/svg" xmlns:xlink="http://www.w3.org/1999/xlink" width="130.095" height="69.628" viewBox="0 0 130.095 69.628">
  <defs>
    <clipPath id="clip-path">
      <rect id="Rectangle_6882" data-name="Rectangle 6882" width="130.095" height="69.628" fill="#fff"/>
    </clipPath>
  </defs>
  <g id="Group_20331" data-name="Group 20331" clip-path="url(#clip-path)">
    <path id="Path_47587" data-name="Path 47587" d="M416.526,61.278a25.806,25.806,0,0,0,16.981-5.833,26.2,26.2,0,0,0,9.951-17.205,26.684,26.684,0,0,0-6.593-22.426,26.369,26.369,0,0,0-15.58-8.679,27.384,27.384,0,0,0-29.26,14.551,24.69,24.69,0,0,0-2.152,5.935c-.117.519-.328.7-.867.693-1.842-.032-3.686-.022-5.529,0-.442,0-.618-.056-.518-.579a33.524,33.524,0,0,1,4.4-11.356,34.04,34.04,0,0,1,12.275-11.9A34.13,34.13,0,0,1,436.2,6.248a33.3,33.3,0,0,1,14,22.005,32.979,32.979,0,0,1-1.154,16.39,34.254,34.254,0,0,1-25.936,23,36.473,36.473,0,0,1-8.389.609c-1.049-.036-2.092-.219-3.139-.317-.372-.035-.47-.188-.345-.531.7-1.9,1.4-3.806,2.079-5.715.144-.4.432-.419.775-.414.813.01,1.625,0,2.438,0" transform="translate(-320.642 0)" fill="#cfad65"/>
    <path id="Path_47588" data-name="Path 47588" d="M14.7,140.342c-4.606,0-9.213-.012-13.819.014-.653,0-.892-.138-.876-.841.046-2.139.021-4.28.013-6.421a1.342,1.342,0,0,1,.317-.964q6.711-7.755,13.4-15.528c1.778-2.068,3.595-4.109,5.272-6.257a7.391,7.391,0,0,0,.94-8.09c-1.069-2.3-3.845-3.278-6.8-2.624a5.012,5.012,0,0,0-4.194,4.624c-.174,1.443-.174,1.443-1.591,1.443-2.195,0-4.389-.006-6.584,0-.463,0-.813-.053-.758-.649a15.618,15.618,0,0,1,1.8-6.582,13.334,13.334,0,0,1,9.256-6.524A16.2,16.2,0,0,1,23.9,94.2a12.629,12.629,0,0,1,5.4,9.15,13.017,13.017,0,0,1-1.357,8.409,32.591,32.591,0,0,1-4.014,5.293q-3.669,4.222-7.308,8.47-2.7,3.132-5.386,6.273c-.141.166-.476.309-.336.578.126.243.443.136.677.136,5.636,0,11.272.019,16.907-.015.788,0,1.005.211.984.992-.055,2.03-.042,4.064,0,6.095.012.62-.186.771-.784.769-4.66-.023-9.321-.013-13.981-.013" transform="translate(0 -76.636)" fill="#fff"/>
    <path id="Path_47589" data-name="Path 47589" d="M220,93.937l-16.53,33.028c.241.225.467.149.67.149,2.9.006,5.8-.015,8.7.018.651.007.828-.194.819-.83-.033-2.466,0-4.932-.026-7.4-.007-.592.141-.8.766-.791q3.5.053,6.992,0c.59-.008.725.2.719.753-.024,2.493.007,4.987-.023,7.479-.007.606.17.811.781.783.974-.046,1.952.007,2.927-.02.527-.015.713.177.708.709q-.031,3.536,0,7.073c0,.5-.158.665-.653.648-.921-.032-1.846.041-2.763-.024-.764-.054-1.04.148-1.008.965.067,1.7,0,3.414.029,5.121.008.552-.156.767-.738.761q-3.5-.039-6.993,0c-.56.006-.756-.152-.745-.73.033-1.707-.029-3.416.03-5.121.027-.773-.174-1-.973-1-5.963.034-11.926,0-17.888.041-.858.006-1.038-.251-1.017-1.05.054-2.058.034-4.119.01-6.178a4.291,4.291,0,0,1,.48-2.088c2.085-4.1,4.11-8.221,6.165-12.332q4.823-9.65,9.653-19.3c.188-.377.334-.689.865-.684,2.953.024,5.906.012,9.041.012" transform="translate(-162.264 -78.647)" fill="#fff"/>
    <path id="Path_47590" data-name="Path 47590" d="M453.657,189.653c4.255,0,8.509.012,12.764-.013.658,0,.905.165.886.859-.045,1.679-.037,3.36,0,5.039a4.429,4.429,0,0,1-.441,1.712q-2.88,7.442-5.786,14.874-2.655,6.8-5.324,13.587c-.285.729-.574,1.457-.835,2.2a.664.664,0,0,1-.773.506c-2.113-.04-4.229-.072-6.34,0-.85.031-.768-.257-.546-.823.79-2.013,1.563-4.032,2.346-6.048q2.259-5.816,4.524-11.63,2.474-6.344,4.958-12.685c.429-1.1.434-1.095-.778-1.095-5.745,0-11.49-.013-17.235.017-.718,0-1.049-.214-1.092-.918-.1-1.624-.064-3.249-.007-4.872.02-.572.349-.727.918-.724,4.254.025,8.509.013,12.764.013" transform="translate(-368.361 -158.792)" fill="#fff"/>
    <path id="Path_47591" data-name="Path 47591" d="M382.685,196.782c-.895,0-1.789-.019-2.683.008-.5.015-.685-.116-.745-.667a25.483,25.483,0,0,1,.014-4.853c.034-.423.2-.557.6-.554q2.846.018,5.692,0c.432,0,.563.146.509.582a19.466,19.466,0,0,0,.015,4.847c.055.44-.069.656-.558.643-.948-.024-1.9-.007-2.846-.007" transform="translate(-317.472 -159.693)" fill="#cfad65"/>
  </g>
</svg>
